<svg xmlns="http://www.w3.org/2000/svg">
  <symbol id="facebook" viewBox="0 0 56.693 56.693">
    <g>
      <path
        d="M40.43,21.739h-7.645v-5.014c0-1.883,1.248-2.322,2.127-2.322c0.877,0,5.395,0,5.395,0V6.125l-7.43-0.029  c-8.248,0-10.125,6.174-10.125,10.125v5.518h-4.77v8.53h4.77c0,10.947,0,24.137,0,24.137h10.033c0,0,0-13.32,0-24.137h6.77  L40.43,21.739z"
      />
    </g>
  </symbol>
  <symbol id="instagram" viewBox="0 0 56.7 56.7">
    <g>      
      <path d="M28.2,16.7c-7,0-12.8,5.7-12.8,12.8s5.7,12.8,12.8,12.8S41,36.5,41,29.5S35.2,16.7,28.2,16.7z M28.2,37.7
        c-4.5,0-8.2-3.7-8.2-8.2s3.7-8.2,8.2-8.2s8.2,3.7,8.2,8.2S32.7,37.7,28.2,37.7z"/>
      <circle cx="41.5" cy="16.4" r="2.9"/>
      <path d="M49,8.9c-2.6-2.7-6.3-4.1-10.5-4.1H17.9c-8.7,0-14.5,5.8-14.5,14.5v20.5c0,4.3,1.4,8,4.2,10.7c2.7,2.6,6.3,3.9,10.4,3.9
        h20.4c4.3,0,7.9-1.4,10.5-3.9c2.7-2.6,4.1-6.3,4.1-10.6V19.3C53,15.1,51.6,11.5,49,8.9z M48.6,39.9c0,3.1-1.1,5.6-2.9,7.3
        s-4.3,2.6-7.3,2.6H18c-3,0-5.5-0.9-7.3-2.6C8.9,45.4,8,42.9,8,39.8V19.3c0-3,0.9-5.5,2.7-7.3c1.7-1.7,4.3-2.6,7.3-2.6h20.6
        c3,0,5.5,0.9,7.3,2.7c1.7,1.8,2.7,4.3,2.7,7.2V39.9L48.6,39.9z"/>
    </g>    
  </symbol>
  <symbol id="clock" viewBox="0 0 1792 1792">
    <g>
      <path d="M1024 544v448q0 14-9 23t-23 9h-320q-14 0-23-9t-9-23v-64q0-14 9-23t23-9h224v-352q0-14 9-23t23-9h64q14 0 23 9t9 23zm416 352q0-148-73-273t-198-198-273-73-273 73-198 198-73 273 73 273 198 198 273 73 273-73 198-198 73-273zm224 0q0 209-103 385.5t-279.5 279.5-385.5 103-385.5-103-279.5-279.5-103-385.5 103-385.5 279.5-279.5 385.5-103 385.5 103 279.5 279.5 103 385.5z"/>
    </g>
  </symbol>
   <symbol id="heart" viewBox="0 0 777 900">
    <g>
    <path d="M384.1 864.026C783.145 550.451 768.126 438.959 768.126 352S696.149 159.97399999999993 576.1 159.97399999999993 384.1 288 384.1 288s-71.95-128.026-192-128.026S0.074 265.04099999999994 0.074 352-14.945 550.451 384.1 864.026z"/>
    </g>
  </symbol>
  <symbol id="twitter" viewBox="0 0 512 512">
    <g>
    <path d="M492,109.5c-17.4,7.7-36,12.9-55.6,15.3c20-12,35.4-31,42.6-53.6c-18.7,11.1-39.4,19.2-61.5,23.5  C399.8,75.8,374.6,64,346.8,64c-53.5,0-96.8,43.4-96.8,96.9c0,7.6,0.8,15,2.5,22.1C172,179,100.6,140.4,52.9,81.7  c-8.3,14.3-13.1,31-13.1,48.7c0,33.6,17.1,63.3,43.1,80.7C67,210.7,52,206.3,39,199c0,0.4,0,0.8,0,1.2c0,47,33.4,86.1,77.7,95  c-8.1,2.2-16.7,3.4-25.5,3.4c-6.2,0-12.3-0.6-18.2-1.8c12.3,38.5,48.1,66.5,90.5,67.3c-33.1,26-74.9,41.5-120.3,41.5  c-7.8,0-15.5-0.5-23.1-1.4C62.9,432,113.8,448,168.4,448C346.6,448,444,300.3,444,172.2c0-4.2-0.1-8.4-0.3-12.5  C462.6,146,479,128.9,492,109.5z"/>
    </g>
  </symbol>
  <symbol id="mailbox" viewBox="0 0 96 96">
    <g>
    <path d="M95.3108,39.34l.0564-.0234-12-24A6.0132,6.0132,0,0,0,78,12H18a6.0132,6.0132,0,0,0-5.3672,3.3164l-12,24,.0344.0564A5.881,5.881,0,0,0,0,42V78a5.9966,5.9966,0,0,0,6,6H90a5.9966,5.9966,0,0,0,6-6V42A5.8775,5.8775,0,0,0,95.3108,39.34ZM21.709,24H74.291l6,12H64.8984a5.9938,5.9938,0,0,0-5.6543,3.9961,11.9,11.9,0,0,1-22.4882,0A5.9937,5.9937,0,0,0,31.1016,36H15.709ZM84,72H12V48H27.293a23.8658,23.8658,0,0,0,41.414,0H84Z"/>
    </g>
  </symbol>
  <symbol id="location" viewBox="0 0 50 80">
    <g>
    <path d="M25,0C11.191,0,0,11.194,0,25c0,23.87,25,55,25,55s25-31.13,25-55C50,11.194,38.807,0,25,0z M25,38.8   c-7.457,0-13.5-6.044-13.5-13.5S17.543,11.8,25,11.8c7.455,0,13.5,6.044,13.5,13.5S32.455,38.8,25,38.8z"/>
    </g>
  </symbol>
  <symbol id="phone" viewBox="0 0 1792 1792">
    <g>
    <path d="M1600 1240q0 27-10 70.5t-21 68.5q-21 50-122 106-94 51-186 51-27 0-52.5-3.5t-57.5-12.5-47.5-14.5-55.5-20.5-49-18q-98-35-175-83-128-79-264.5-215.5t-215.5-264.5q-48-77-83-175-3-9-18-49t-20.5-55.5-14.5-47.5-12.5-57.5-3.5-52.5q0-92 51-186 56-101 106-122 25-11 68.5-21t70.5-10q14 0 21 3 18 6 53 76 11 19 30 54t35 63.5 31 53.5q3 4 17.5 25t21.5 35.5 7 28.5q0 20-28.5 50t-62 55-62 53-28.5 46q0 9 5 22.5t8.5 20.5 14 24 11.5 19q76 137 174 235t235 174q2 1 19 11.5t24 14 20.5 8.5 22.5 5q18 0 46-28.5t53-62 55-62 50-28.5q14 0 28.5 7t35.5 21.5 25 17.5q25 15 53.5 31t63.5 35 54 30q70 35 76 53 3 7 3 21z"/>
    </g>
  </symbol>
  
</svg>
